<?xml version="1.0" encoding="UTF-8" standalone="no"?>
<svg width="412px" height="412px" viewBox="0 0 412 412" version="1.1" xmlns="http://www.w3.org/2000/svg" xmlns:xlink="http://www.w3.org/1999/xlink" xmlns:sketch="http://www.bohemiancoding.com/sketch/ns">
    <!-- Generator: Sketch 3.3.3 (12072) - http://www.bohemiancoding.com/sketch -->
    <title>Slice 1</title>
    <desc>Created with Sketch.</desc>
    <defs></defs>
    <g id="Page-1" stroke="none" stroke-width="1" fill="none" fill-rule="evenodd" sketch:type="MSPage">
        <path d="M42.556,309 C59.346,309 65.029,299.998 71.868,293.175 C85.833,279.159 103,285.128 103,307.71 L103,412 L207.29,412 C229.872,412 235.841,394.833 221.834,380.869 C215.002,374.029 206,368.346 206,351.548 C206,332.889 225.028,309 257.5,309 C289.972,309 309,332.889 309,351.548 C309,368.346 299.998,374.029 293.175,380.869 C279.159,394.833 285.128,412 307.71,412 L412,412 L412,307.71 C412,285.128 394.833,279.159 380.869,293.175 C374.029,299.998 368.346,309 351.548,309 C332.889,309 309,289.972 309,257.5 C309,225.028 332.889,206 351.548,206 C368.346,206 374.029,215.002 380.869,221.834 C394.833,235.841 412,229.872 412,207.29 L412,103 L307.71,103 C285.128,103 279.159,85.833 293.175,71.869 C299.998,65.029 309,59.346 309,42.557 C309,23.889 289.972,0 257.5,0 C225.028,0 206,23.889 206,42.556 C206,59.346 215.002,65.029 221.834,71.868 C235.841,85.833 229.872,103 207.29,103 L103,103 L103,207.29 C103,229.872 85.833,235.841 71.869,221.834 C65.029,215.002 59.346,206 42.556,206 C23.889,206 0,225.028 0,257.5 C0,289.972 23.889,309 42.556,309 L42.556,309 Z" id="puzzle-1" fill="#FFFFFF" sketch:type="MSShapeGroup"></path>
    </g>
</svg>