<?xml version="1.0" encoding="UTF-8" standalone="no"?>
<svg width="412px" height="302px" viewBox="0 0 412 302" version="1.1" xmlns="http://www.w3.org/2000/svg" xmlns:xlink="http://www.w3.org/1999/xlink" xmlns:sketch="http://www.bohemiancoding.com/sketch/ns">
    <!-- Generator: Sketch 3.2.2 (9983) - http://www.bohemiancoding.com/sketch -->
    <title>Untitled</title>
    <desc>Created with Sketch.</desc>
    <defs></defs>
    <g id="Page-1" stroke="none" stroke-width="1" fill="none" fill-rule="evenodd" sketch:type="MSPage">
        <path d="M17.851,78.609 L0.169,38.609 L289.913,38.609 L277.337,78.609 L17.851,78.609 L17.851,78.609 Z M32.271,113.277 L49.732,152.775 L254.816,152.775 L267.236,113.277 L32.271,113.277 L32.271,113.277 Z M339.858,0.109 L280.678,188.275 L65.231,188.275 L82.858,228.275 L309.926,228.275 L369.104,40.109 L399.084,40.109 L411.83,0.109 L339.858,0.109 L339.858,0.109 Z M239.925,248.109 C225.073,248.109 213.034,260.148 213.034,275 C213.034,289.852 225.073,301.891 239.925,301.891 C254.777,301.891 266.816,289.852 266.816,275 C266.816,260.148 254.776,248.109 239.925,248.109 L239.925,248.109 Z M151.042,248.109 C136.19,248.109 124.151,260.148 124.151,275 C124.151,289.852 136.19,301.891 151.042,301.891 C165.894,301.891 177.933,289.852 177.933,275 C177.933,260.148 165.894,248.109 151.042,248.109 L151.042,248.109 Z" id="shopping-cart-5-icon" fill="#FFFFFF" sketch:type="MSShapeGroup"></path>
    </g>
</svg>