<?xml version="1.0" encoding="UTF-8" standalone="no"?>
<svg width="412px" height="344px" viewBox="0 0 412 344" version="1.1" xmlns="http://www.w3.org/2000/svg" xmlns:xlink="http://www.w3.org/1999/xlink" xmlns:sketch="http://www.bohemiancoding.com/sketch/ns">
    <!-- Generator: Sketch 3.2.2 (9983) - http://www.bohemiancoding.com/sketch -->
    <title>Untitled</title>
    <desc>Created with Sketch.</desc>
    <defs></defs>
    <g id="Page-1" stroke="none" stroke-width="1" fill="none" fill-rule="evenodd" sketch:type="MSPage">
        <path d="M412,51.834 C344.658,107.877 315.471,132.797 289.252,132.797 C247.375,132.797 226.066,69.696 206,0.334 C186,69.479 164.625,132.78 122.698,132.78 C96.713,132.78 68.298,108.673 -1.42108547e-14,51.834 C57.016,172.311 51.5,297.162 51.5,343.666 L360.5,343.666 C360.5,314.178 352.303,178.01 412,51.834 L412,51.834 Z M122.698,167.113 C162.094,167.113 187.71,138.958 206,102.546 C224.273,138.966 249.872,167.13 289.252,167.13 C308.497,167.13 326.804,159.754 342.914,149.243 C335.504,181.974 331.246,213.105 328.832,240.666 L82.983,240.666 C80.619,212.904 76.462,181.899 69.119,149.268 C85.029,159.687 103.453,167.113 122.698,167.113 L122.698,167.113 Z M85.951,309.334 C85.901,299.141 85.683,287.573 85.146,275 L326.603,275 C326.049,287.791 325.815,299.408 325.798,309.334 L85.951,309.334 L85.951,309.334 Z" id="crown-4" fill="#FFFFFF" sketch:type="MSShapeGroup"></path>
    </g>
</svg>