<?xml version="1.0" encoding="UTF-8" standalone="no"?>
<svg width="46px" height="53px" viewBox="0 0 46 53" version="1.1" xmlns="http://www.w3.org/2000/svg" xmlns:xlink="http://www.w3.org/1999/xlink" xmlns:sketch="http://www.bohemiancoding.com/sketch/ns">
    <!-- Generator: Sketch 3.3.3 (12072) - http://www.bohemiancoding.com/sketch -->
    <title>Slice 1</title>
    <desc>Created with Sketch.</desc>
    <defs></defs>
    <g id="Page-1" stroke="none" stroke-width="1" fill="none" fill-rule="evenodd" sketch:type="MSPage">
        <g id="wpml-logo" sketch:type="MSLayerGroup" transform="translate(0.000000, -1.000000)" fill="#FFFFFF">
            <path d="M21.1,1 C33.8,0.8 41.6,7.6 44.5,17.2 C46.7,24.4 45.1,34.3 40.2,37.3 C34.5,40.7 26.9,34.7 28.3,28.4 C29.6,22.5 38.6,19 37.3,12.2 C35.8,4.2 21.7,4 15.3,7.7 C11.5,9.9 8.3,13.4 6.6,17.7 C1.9,29.6 10.8,41.1 19.3,43.7 C21.9,44.5 26.4,44.5 29,43.7 C33,42.5 37.2,39.4 40.7,44 C43.4,47.7 41.6,53.1 37.5,53.9 C34.3,54.5 30.9,52.5 29.9,50.8 C29,49.1 29.7,46.5 31.2,46 L32.4,46 C34.6,47 34.3,50.8 35.5,52.7 C40.5,52.7 41.7,45.6 38.1,43.1 C35.6,41.4 30.5,44.2 27.6,44.8 C21.8,46 15.6,44.2 12,42.1 C2.6,36.5 -3.2,22.8 4.6,11.1 C7.2,7.2 11.2,3.9 15.9,2.1 C17.5,1.5 19.4,1.7 21.1,1 L21.1,1 Z" id="Shape" sketch:type="MSShapeGroup"></path>
        </g>
    </g>
</svg>