<?xml version="1.0" encoding="UTF-8" standalone="no"?>
<svg width="354px" height="318px" viewBox="0 0 354 318" version="1.1" xmlns="http://www.w3.org/2000/svg" xmlns:xlink="http://www.w3.org/1999/xlink" xmlns:sketch="http://www.bohemiancoding.com/sketch/ns">
    <!-- Generator: Sketch 3.2.2 (9983) - http://www.bohemiancoding.com/sketch -->
    <title>Untitled</title>
    <desc>Created with Sketch.</desc>
    <defs></defs>
    <g id="Page-1" stroke="none" stroke-width="1" fill="none" fill-rule="evenodd" sketch:type="MSPage">
        <path d="M51.269,159 C68.955,166.75 81.519,183.5 81.519,213 L81.519,247.457 C81.519,272.412 103.898,280.369 123.066,280.951 L123.066,317.812 C70.802,317.812 39.955,299.912 39.955,251.578 L39.955,213.195 C39.955,188.648 20.455,177.658 0.601,177.658 L0.601,140.342 C20.455,140.342 39.955,129.353 39.955,104.806 L39.955,66.422 C39.955,18.089 70.803,0.188 123.066,0.188 L123.066,37.049 C103.898,37.631 81.519,45.588 81.519,70.544 L81.519,105 C81.519,134.5 68.954,151.25 51.269,159 L51.269,159 Z M272.481,105 L272.481,70.544 C272.481,45.588 250.102,37.631 230.934,37.049 L230.934,0.188 C283.198,0.188 314.045,18.089 314.045,66.422 L314.045,104.806 C314.045,129.353 333.545,140.342 353.399,140.342 L353.399,177.658 C333.545,177.658 314.045,188.648 314.045,213.195 L314.045,251.578 C314.045,299.912 283.197,317.812 230.934,317.812 L230.934,280.951 C250.102,280.369 272.481,272.412 272.481,247.457 L272.481,213 C272.481,183.5 285.045,166.75 302.731,159 C285.046,151.25 272.481,134.5 272.481,105 L272.481,105 Z M204.546,175.288 L204.546,206.442 C204.546,234.293 186.946,256.827 161.302,261.899 L156.442,251.395 C168.318,246.92 175.85,232.55 175.85,221.755 L155.804,221.755 L155.804,175.287 L204.546,175.287 L204.546,175.288 Z M204.546,75.051 L155.804,75.051 L155.804,123.872 L204.546,123.872 L204.546,75.051 L204.546,75.051 Z" id="javascript-code-icon" fill="#FFFFFF" sketch:type="MSShapeGroup"></path>
    </g>
</svg>