<?xml version="1.0" encoding="UTF-8" standalone="no"?>
<svg width="412px" height="330px" viewBox="0 0 412 330" version="1.1" xmlns="http://www.w3.org/2000/svg" xmlns:xlink="http://www.w3.org/1999/xlink" xmlns:sketch="http://www.bohemiancoding.com/sketch/ns">
    <!-- Generator: Sketch 3.2.2 (9983) - http://www.bohemiancoding.com/sketch -->
    <title>Untitled</title>
    <desc>Created with Sketch.</desc>
    <defs></defs>
    <g id="Page-1" stroke="none" stroke-width="1" fill="none" fill-rule="evenodd" sketch:type="MSPage">
        <path d="M170.542,253.382 C170.542,260.285 164.944,265.882 158.042,265.882 C151.138,265.882 145.542,260.285 145.542,253.382 L145.542,197.082 C145.542,190.179 151.138,184.582 158.042,184.582 C164.944,184.582 170.542,190.179 170.542,197.082 L170.542,253.382 L170.542,253.382 Z M219.542,253.382 C219.542,260.285 213.944,265.882 207.042,265.882 C200.138,265.882 194.542,260.285 194.542,253.382 L194.542,197.082 C194.542,190.179 200.138,184.582 207.042,184.582 C213.944,184.582 219.542,190.179 219.542,197.082 L219.542,253.382 L219.542,253.382 Z M268.458,253.382 C268.458,260.285 262.862,265.882 255.958,265.882 C249.056,265.882 243.458,260.285 243.458,253.382 L243.458,197.082 C243.458,190.179 249.056,184.582 255.958,184.582 C262.862,184.582 268.458,190.179 268.458,197.082 L268.458,253.382 L268.458,253.382 Z M76.752,98.145 L168.875,6.022 C175.709,-0.812 186.791,-0.812 193.625,6.022 C200.459,12.857 200.459,23.937 193.625,30.771 L126.25,98.145 L76.752,98.145 L76.752,98.145 Z M285.75,98.145 L335.248,98.145 L243.124,6.022 C236.29,-0.812 225.21,-0.812 218.376,6.022 C211.541,12.857 211.541,23.937 218.376,30.771 L285.75,98.145 L285.75,98.145 Z M341.489,162.812 L279.988,289.103 L132.301,289.103 L70.547,162.812 L341.489,162.812 L341.489,162.812 Z M412,122.812 L0,122.812 L0,162.812 L11.041,162.812 C20.207,162.812 28.574,168.034 32.602,176.269 L107.334,329.103 L305,329.103 L379.409,176.304 C383.429,168.05 391.805,162.812 400.986,162.812 L412,162.812 L412,122.812 L412,122.812 Z" id="basket-4-icon" fill="#FFFFFF" sketch:type="MSShapeGroup"></path>
    </g>
</svg>